<svg xmlns="http://www.w3.org/2000/svg" id="flag-icons-us" viewBox="0 0 640 480">
  <g fill-rule="evenodd">
    <path fill="#bd3d44" d="M0 0h960v40H0zm0 80h960v40H0zm0 80h960v40H0zm0 80h960v40H0zm0 80h960v40H0zm0 80h960v40H0zm0 80h960v40H0z"/>
    <path fill="#fff" d="M0 40h960v40H0zm0 80h960v40H0zm0 80h960v40H0zm0 80h960v40H0zm0 80h960v40H0zm0 80h960v40H0zm0 80h960v40H0z"/>
    <path fill="#192f5d" d="M0 0h420v280H0z"/>
    <path fill="#fff" d="m30 20 3.5 11h11l-9 6.5 3.5 11-9-6.5-9 6.5 3.5-11-9-6.5h11zm60 0 3.5 11h11l-9 6.5 3.5 11-9-6.5-9 6.5 3.5-11-9-6.5h11zm60 0 3.5 11h11l-9 6.5 3.5 11-9-6.5-9 6.5 3.5-11-9-6.5h11zm60 0 3.5 11h11l-9 6.5 3.5 11-9-6.5-9 6.5 3.5-11-9-6.5h11zm60 0 3.5 11h11l-9 6.5 3.5 11-9-6.5-9 6.5 3.5-11-9-6.5h11zm60 0 3.5 11h11l-9 6.5 3.5 11-9-6.5-9 6.5 3.5-11-9-6.5h11z"/>
    <path fill="#fff" d="m30 40 3.5 11h11l-9 6.5 3.5 11-9-6.5-9 6.5 3.5-11-9-6.5h11zm60 0 3.5 11h11l-9 6.5 3.5 11-9-6.5-9 6.5 3.5-11-9-6.5h11zm60 0 3.5 11h11l-9 6.5 3.5 11-9-6.5-9 6.5 3.5-11-9-6.5h11zm60 0 3.5 11h11l-9 6.5 3.5 11-9-6.5-9 6.5 3.5-11-9-6.5h11zm60 0 3.5 11h11l-9 6.5 3.5 11-9-6.5-9 6.5 3.5-11-9-6.5h11zm60 0 3.5 11h11l-9 6.5 3.5 11-9-6.5-9 6.5 3.5-11-9-6.5h11z"/>
    <path fill="#fff" d="m30 60 3.5 11h11l-9 6.5 3.5 11-9-6.5-9 6.5 3.5-11-9-6.5h11zm60 0 3.5 11h11l-9 6.5 3.5 11-9-6.5-9 6.5 3.5-11-9-6.5h11zm60 0 3.5 11h11l-9 6.5 3.5 11-9-6.5-9 6.5 3.5-11-9-6.5h11zm60 0 3.5 11h11l-9 6.5 3.5 11-9-6.5-9 6.5 3.5-11-9-6.5h11zm60 0 3.5 11h11l-9 6.5 3.5 11-9-6.5-9 6.5 3.5-11-9-6.5h11zm60 0 3.5 11h11l-9 6.5 3.5 11-9-6.5-9 6.5 3.5-11-9-6.5h11z"/>
  </g>
</svg>
